<?xml version="1.0" encoding="UTF-8" standalone="no"?>
<!-- Created with Inkscape (http://www.inkscape.org/) -->

<svg
   xmlns:dc="http://purl.org/dc/elements/1.1/"
   xmlns:cc="http://creativecommons.org/ns#"
   xmlns:rdf="http://www.w3.org/1999/02/22-rdf-syntax-ns#"
   xmlns:svg="http://www.w3.org/2000/svg"
   xmlns="http://www.w3.org/2000/svg"
   xmlns:sodipodi="http://sodipodi.sourceforge.net/DTD/sodipodi-0.dtd"
   xmlns:inkscape="http://www.inkscape.org/namespaces/inkscape"
   id="svg3144"
   height="594.45"
   width="594.45"
   version="1.1"
   inkscape:version="0.48.5 r10040"
   sodipodi:docname="UILogo.svg">
  <defs
     id="defs3041" />
  <sodipodi:namedview
     pagecolor="#ffffff"
     bordercolor="#666666"
     borderopacity="1"
     objecttolerance="10"
     gridtolerance="10"
     guidetolerance="10"
     inkscape:pageopacity="0"
     inkscape:pageshadow="2"
     inkscape:window-width="1440"
     inkscape:window-height="838"
     id="namedview3039"
     showgrid="false"
     inkscape:zoom="1.5880225"
     inkscape:cx="397.93927"
     inkscape:cy="79.783759"
     inkscape:window-x="-8"
     inkscape:window-y="-8"
     inkscape:window-maximized="1"
     inkscape:current-layer="svg3144" />
  <metadata
     id="metadata4218">
    <rdf:RDF>
      <cc:Work
         rdf:about="">
        <dc:format>image/svg+xml</dc:format>
        <dc:type
           rdf:resource="http://purl.org/dc/dcmitype/StillImage" />
        <dc:title></dc:title>
      </cc:Work>
    </rdf:RDF>
  </metadata>
  <path
     id="path3021-1"
     stroke-linejoin="round"
     style="marker-start:none;"
     d="m297.22,6.1355c160.76,0,291.09,130.32,291.09,291.09,0,160.76-130.32,291.09-291.09,291.09-160.76,0-291.09-130.32-291.09-291.09,0-160.76,130.33-291.09,291.09-291.09z"
     fill-rule="evenodd"
     stroke="#0a0a32"
     stroke-linecap="round"
     stroke-miterlimit="1"
     stroke-dasharray="none"
     stroke-width="6.26999998"
     fill="#FFF" />
  <path
     id="path3021"
     stroke-linejoin="round"
     style="marker-start:none;"
     d="m297.22,18.669c153.84,0,278.55,124.71,278.55,278.55s-124.71,278.55-278.55,278.55-278.55-124.71-278.55-278.55,124.71-278.55,278.55-278.55z"
     fill-rule="evenodd"
     stroke="#0a0a32"
     stroke-linecap="round"
     stroke-miterlimit="1"
     stroke-dasharray="none"
     stroke-width="6"
     fill="#c9e9f8" />
  <g
     id="g4434"
     stroke-linejoin="round"
     fill-rule="evenodd"
     stroke="#0a0a32"
     stroke-linecap="round"
     stroke-dasharray="none"
     stroke-miterlimit="1"
     stroke-width="5"
     fill="#FFF">
    <path
       id="path2993"
       d="m247.21,353.94c-19.058-11.172-40.555-16.055-59.845-12.111-43.542,8.9012-59.649,42.634-47.726,90.78,7.2662,21.444,11.799,38.748,7.435,50.71-5.1412,14.09-25.566,8.2312-25.566-4.3838,0-7.0762,5.7362-12.812,12.812-12.812,0.5625,0,1.1175,0.0362,1.6612,0.1075,0.11625,0.015,0.2325,0.0312,0.3475,0.05-1.49-15.518-8.2012-30.218-24.445-40.45-32.909-20.73-36.842-56.476-13.125-60.469-17.076-7.19-15.738-31.875,4.6875-35.625-26.345,1.0425-38.21-17.038-37.031-39.375,6.2362,9.0088,16.696,1.5125,24.844-1.4062,10.069-3.6088,19.452-2.2012,27.188,5.3162-12.3-14.275,0.115-32.472,14.531-28.52-12.582-7.83-5.1825-21.399,5.1562-22.265-15.852,2.2725-23.579-5.7612-29.531-19.219-4.0025-9.0475-11.742-10.579-23.438-7.5,7.685-14.395,21.378-20.45,33.75-14.064-3.595-15.312,6.5612-27.658,17.812-27.655,3.1375,13.075,20.142,17.551,25.312,6.5625,6.8838-14.751-7.5088-27.438-27.188-23.438,19.102-29.264,46.211-23.579,61.406-3.2812,7.2175-15.968,23.981-28.43,48.75-32.344,16.022-2.5325,32.534-5.8062,38.855-15.404-10.954-0.29125-14.634-7.5338-16.409-20.525-0.9075-6.635-6.3438-13.67-17.351-10.411,2.155-11.859,14.306-22.22,27.495-17.35-0.28625-14.594,8.1488-19.439,20.676-30.473,12.529,11.034,20.964,15.879,20.678,30.473,13.189-4.87,25.34,5.4912,27.495,17.35-11.008-3.2588-16.445,3.7762-17.351,10.411-1.775,12.991-5.455,20.234-16.409,20.525,6.3212,9.5975,22.831,12.871,38.855,15.404,24.769,3.9138,41.532,16.376,48.75,32.344,15.195-20.298,42.304-25.982,61.406,3.2812-19.679-4-34.072,8.6862-27.188,23.438,5.17,10.989,22.175,6.5125,25.312-6.5625,11.251-0.003,21.408,12.342,17.812,27.655,12.372-6.3862,26.064-0.33125,33.75,14.064-11.695-3.0788-19.436-1.5475-23.438,7.5-5.9525,13.458-13.679,21.491-29.531,19.219,10.339,0.86625,17.739,14.435,5.1562,22.265,14.416-3.9525,26.831,14.245,14.531,28.52,7.735-7.5175,17.119-8.925,27.188-5.3162,8.1462,2.9188,18.608,10.415,24.844,1.4062,1.1788,22.338-10.686,40.418-37.031,39.375,20.425,3.75,21.764,28.435,4.6875,35.625,23.718,3.9925,19.784,39.739-13.125,60.469-16.245,10.232-22.955,24.932-24.445,40.45,0.115-0.0188,0.23125-0.035,0.3475-0.05,0.54375-0.0712,1.0975-0.1075,1.6612-0.1075,7.0762,0,12.812,5.7362,12.812,12.812,0,12.615-20.425,18.474-25.566,4.3838-4.3638-11.962,0.16875-29.266,7.435-50.71,11.922-48.146-4.1838-81.879-47.726-90.78-19.29-3.9438-40.788,0.93875-59.845,12.111-4.5138-8.0538-12.605-14.334-21.571-16.87-0.1525-4.355-0.86375-8.5575-2.0875-12.574,6.1425-8.1712,15.221-13.176,24.21-18.401,66.419-38.615,45.315-110.57,9.2138-143.14-37.17-33.536-54.245-30.096-60.831-56.005-6.585,25.909-23.66,22.469-60.83,56.005-36.101,32.57-57.205,104.53,9.2138,143.14,8.9888,5.225,18.068,10.23,24.21,18.401-1.2238,4.0162-1.935,8.2188-2.0875,12.574-8.9662,2.5362-17.058,8.8162-21.571,16.87z" />
    <path
       id="path2995"
       d="m298.27,414.98h-8.1938c-2.97-21.285-10.38-46.468-35.998-46.021-0.84125-11.66,12.689-24.338,25.972-22.328-2.8738-15.874,2.8662-30.909,18.219-41.921,15.354,11.012,21.094,26.048,18.22,41.921,13.284-2.01,26.814,10.668,25.972,22.328-25.618-0.44625-33.028,24.736-35.998,46.021h-8.195z" />
  </g>
  <path
     style="fill:#0a0a32;fill-rule:evenodd"
     inkscape:connector-curvature="0"
     d="m 339.2,415.1 c -3.0438,-1.8362 -2.8812,-14.974 9.8262,-16.475 7.4325,-0.8775 8.7725,-8.1312 6.9662,-13.161 2.3075,1.7625 3.62,4.14 3.7188,9.1475 0.245,12.349 -9.1038,20.502 -4.8788,28.501 -9.0112,-0.004 -18.456,2.9775 -23.449,14.13 -5.9488,-6.5325 -5.1362,-23.578 7.8162,-22.142 z"
     id="path2997" />
  <path
     style="fill:#0a0a32;fill-rule:evenodd"
     d="M 235.4375 371.75 L 235.4375 495.28125 C 239.3255 487.24505 260.1225 498.584 261.5 487.25 L 271.03125 487.25 C 271.17255 491.675 271.93375 497.11 279.84375 495.9375 C 273.62875 499.8327 276.6725 508.54875 282.875 507.8125 C 280.4975 510.89875 285.035 514.9075 288.3125 511 C 288.5075 514.3175 290.29625 515.61245 294.96875 518.28125 C 301.67455 522.11125 309.2162 526.19875 307.125 536.46875 C 306.805 538.04375 303.1113 542.60495 297.1875 540.21875 C 305.6615 541.65135 304.53 527.40125 295.5 532.78125 C 291.3962 535.22495 286.66 539.3775 285.125 533.5625 C 283.2825 526.5805 283.9813 536.49995 286.6875 540.96875 C 293.2865 551.865 307.9513 552.12925 313.9375 541.28125 C 319.9238 530.43325 316.6262 520.971 314.125 510.75 C 311.001 497.978 318.0388 487.25 324.5 487.25 L 408.65625 487.25 L 409.34375 434.59375 C 409.34375 441.56975 397.53505 436.783 393.15625 447.375 C 384.72625 445.568 382.795 460.2637 374.625 462.8125 C 371.3325 463.6851 367.625 462.43125 367.625 457.40625 C 367.6237 461.14125 365.5 463.75 361.5625 463.75 L 357.625 463.75 C 357.625 449.665 350.3312 445.30525 355.25 432.40625 C 353.4675 436.13125 351.5138 437.96375 346.75 438.15625 C 338.0988 438.50525 328.8125 444.9825 329.75 452.3125 C 324.325 451.5275 320.29245 455.7688 323.15625 463.75 L 313.1875 463.75 C 314.14 458.343 313.6362 451.15125 310.875 446.59375 C 304.09 435.40255 298.28875 439.01075 298.125 428.21875 C 298.075 429.20875 297.1375 433.4325 292.25 435.875 C 284.10625 439.946 278.69125 446.94375 283.90625 452.71875 C 277.30005 450.43175 274.2962 461.2275 279.875 463.75 L 265.53125 463.75 L 265.53125 430.40625 C 264.16625 431.49875 262.3225 432.25 260.4375 432.25 C 256.0288 432.25 252.4375 428.6588 252.4375 424.25 C 252.4375 419.8413 256.0287 416.28125 260.4375 416.28125 C 262.4438 416.28125 263.97245 416.965 265.65625 418.25 C 268.07825 405.0528 254.8125 406.5925 254.75 406.46875 C 258.776 402.15895 256.37625 392.23375 247.15625 393.28125 C 252.38225 385.30225 235.4375 384.349 235.4375 371.75 z M 401.875 447.125 C 403.50123 446.95681 404.78069 447.70045 404.875 449.875 L 404.8125 463.75 L 381.15625 463.75 C 386.80375 459.5862 387.5435 450.97025 394.625 453.03125 C 395.46488 450.17888 399.16462 447.40531 401.875 447.125 z M 346.3125 448.09375 C 347.33366 447.97901 344.4625 450.46138 347.59375 454.625 C 350.9325 459.0674 351.4538 458.2 351.4375 463.75 L 331 463.71875 C 331 455.88995 339.1987 450.1525 346.0625 448.125 C 346.16836 448.09375 346.24442 448.1014 346.3125 448.09375 z M 297.84375 449.4375 C 303.28255 453.3387 306.1275 458.3292 306.5625 463.75 L 289.15625 463.75 C 289.5925 458.3288 292.40505 453.3385 297.84375 449.4375 z M 296.15625 483.0625 C 300.51625 492.9363 307.3365 489.7974 311.6875 487 C 304.9125 491.6638 303.02875 506.439 307.71875 515.625 C 308.61375 517.3788 310.23 525.04625 309.6875 523.78125 C 305.6137 514.27625 295.28175 513.0305 294.46875 506.9375 C 294.09875 504.16 294.05875 502.95495 293.90625 502.40625 C 288.87245 503.63625 283.8247 496.01225 291.1875 491.28125 C 293.995 489.47625 296.15625 486.3049 296.15625 483.0625 z "
     id="path3056" />
  <path
     style="fill:#0a0a32;fill-rule:evenodd"
     inkscape:connector-curvature="0"
     d="m 178.75,443.01 c 0.0425,-2.9025 -1.9075,-3.835 -3.8988,-4.0638 -8.4475,-0.96875 -6.9112,-7.35 -6.965,-7.3725 -10.695,1.1288 -14.276,-8.5588 -14.276,-17.001 -0.58375,7.395 15.514,5.5675 14.032,-5.5338 -1.9038,-9.87 -12.196,-8.53 -14.365,-3.9862 -2.6638,-0.94625 -4.36,-16.722 10.779,-15.551 -5.5162,-15.952 14.8,-15.871 14.8,-31.095 l -0.10625,84.604 z"
     id="path3001" />
  <path
     style="fill:#0a0a32;fill-rule:evenodd"
     inkscape:connector-curvature="0"
     d="m 153.61,491.87 c 4.265,0 5.0738,-6.0912 5.6612,-8.9638 1.285,-6.29 5.6375,-5.2275 5.9775,-5.2225 l -0.0325,-16.11 c -0.0987,-0.5325 -1.5412,0.79875 -3.4562,0.67375 -10.376,-0.67625 -7.3325,-23.148 -4.6675,-22.956 -0.99375,9.2975 9.6238,3.0475 9.72,9.4325 4.1475,-1.1225 10.926,-0.4025 10.484,11.768 v 3.2612 h 39.844 v -3.73 c 0.78375,-6.9375 -5.26,-14.761 -13.736,-7.15 -4.3225,-9.5538 4.07,-19.111 11.586,-15.64 -10.522,-10.531 7.79,-16.145 10.134,-25.796 l 0.0387,75.82 h -57.605 c 0.0937,3.7738 -2.62,7.4262 -13.948,4.6138 z"
     id="path3003" />
  <path
     style="fill:#0a0a32;fill-rule:evenodd"
     inkscape:connector-curvature="0"
     d="m 442.23,487.54 c 0,-11.15 -7.2512,-8.0575 -7.2525,-17.124 l 0.26875,-31.484 c 5.2912,-4.7575 9.9112,-18.202 5.6625,-19.069 -0.13375,-0.0275 11.6,0.65625 8.19,-16.49 -15.81,5.5138 -11.349,-16.152 0.03,-10.626 0.85375,3.2175 1.8238,-5.035 -0.81125,-10.616 -2.635,-5.5812 -10.396,-6.2438 -10.369,-6.3775 3.2412,-15.899 -18.405,-10.2 -15.236,-22.254 -6.2462,3.2488 -7.405,16.209 0.2375,17.209 l 0.0475,116.5 19.232,0.33 z"
     id="path3005" />
  <path
     id="path3009"
     fill-rule="evenodd"
     fill="#0a0a32"
     d="m214.67,253.83c0.8825-6.9388,4.6862-12.158,11.896-15.372,0.46,5.725,2.4612,10.595,5.6988,14.778,0.195,0.2525,0.2,0.59,0.0138,0.84875-0.18625,0.25875-0.50875,0.36-0.81,0.25375-6.8438-2.4038-8.58-2.1225-15.875,0.255-0.2375,0.0775-0.47875,0.0312-0.67125-0.1275-0.19375-0.16-0.28375-0.3875-0.2525-0.635zm20.521,6.2062,3.8188,8.4538c0.3575,0.79125,0.29375,1.6375-0.1775,2.3662-0.47,0.72875-1.215,1.135-2.0825,1.135h-14.31c-1.05,0-1.9462-0.6175-2.3188-1.5988l-3.6238-9.54c-0.12125-0.32125-0.001-0.67625,0.29125-0.85625,0.2925-0.17875,0.6625-0.1275,0.89375,0.125l3.0788,3.3588c0.4875,0.53125,1.1075,0.80375,1.8288,0.80375h8.4162c1.1975,0,2.2025-0.8275,2.4338-2.0025l0.41-2.09c0.0613-0.3075,0.3025-0.53125,0.615-0.5675,0.31125-0.0362,0.5975,0.1275,0.72625,0.4125z" />
  <g
     id="g3033"
     fill="#0a0a32"
     transform="translate(-79.918794,-55.138506)"
     fill-rule="evenodd">
    <path
       id="path3011"
       d="m455.82,315.17,3.8175,8.4538c0.3575,0.79125,0.29375,1.6375-0.17625,2.3662-0.47125,0.72875-1.2162,1.135-2.0838,1.135h-14.31c-1.05,0-1.945-0.6175-2.3188-1.5988l-3.6225-9.54c-0.1225-0.32125-0.002-0.67625,0.29125-0.85625,0.29125-0.17875,0.66125-0.1275,0.89375,0.125l3.0775,3.3588c0.4875,0.53125,1.1075,0.80375,1.8288,0.80375h8.4162c1.1975,0,2.2038-0.8275,2.4338-2.0025l0.41125-2.09c0.06-0.3075,0.3025-0.53125,0.61375-0.5675,0.31125-0.0362,0.5975,0.1275,0.7275,0.4125z" />
    <path
       id="path3013"
       d="m439.15,293.43c-0.2075,2.9862-0.415,5.9738-0.62375,8.96-0.0238,0.3375,0.18625,0.63625,0.51,0.73,6.7212,1.945,11.644,5.4062,14.818,9.7725,0.19875,0.2725,0.545,0.38875,0.8575,0.285,0.31-0.1025,0.49-0.39125,0.4425-0.71375-1.2412-8.4538-6.7362-14.905-14.945-19.599-0.2175-0.125-0.46375-0.12875-0.685-0.01-0.2225,0.1175-0.35625,0.325-0.37375,0.575z" />
  </g>
  <path
     id="path3520-8"
     fill-rule="evenodd"
     fill="#0a0a32"
     d="m297.98,137.38c-46.414,42.669-70.744,86.995-42.125,135.5h63.281c1.5124-3.4655,2.8359-10.884,3.9688-14.281-0.0609-4.6184-1.9297-9.3108-5.1875-13.938-0.13592-0.194-0.38522-0.30555-0.65625-0.3125-0.27155-0.009-0.50488,0.0955-0.65625,0.28125-1.8066,2.2193-3.5985,4.4375-5.4062,6.6562-0.20452,0.25067-0.18971,0.56393,0.0625,0.78125,3.3401,2.8772,4.9349,5.8168,5.8125,8.8125h-6.9688c-1.4244-1.7663-2.5094-3.6623-3.2812-5.6875-0.095-0.24829-0.36874-0.40962-0.6875-0.40625-0.31878,0.003-0.60174,0.1554-0.6875,0.40625-0.91324,2.658-1.6754,4.3106-2.8438,5.6875h-1.3125c-1.4244-1.7663-2.5094-3.6623-3.2812-5.6875-0.095-0.24829-0.36874-0.40962-0.6875-0.40625-0.31878,0.003-0.57049,0.1554-0.65625,0.40625-0.91324,2.658-1.6754,4.3106-2.8438,5.6875h-1.3125c-1.4244-1.7663-2.5094-3.6623-3.2812-5.6875-0.095-0.24829-0.36874-0.40962-0.6875-0.40625-0.31878,0.003-0.60174,0.1554-0.6875,0.40625-0.91324,2.658-1.6754,4.3106-2.8438,5.6875h-2.6875c-5.3311-13.355-6.3981-18.049-7.6562-18.719-1.5049-0.80144-16.5,0-16.5,0-4.853-38.195,13.128-72.234,39.812-104.78zm-38,112.88,9.7812,0c0.94398,3.5196,2.1419,7.0651,3.625,10.625h-9.7812c-1.4828-3.5609-2.6902-7.1056-3.625-10.625z" />
  <path
     id="path3063-1-4-9"
     fill-rule="evenodd"
     fill="#0a0a32"
     d="m297.97,137.38c33.619,41.002,53.429,84.48,31.168,135.49h10.938c28.618-48.505,4.3113-92.821-42.105-135.49z" />
  <path
     id="path4667"
     fill-rule="evenodd"
     fill="#0a0a32"
     d="m290.8,160.72c2.586,4.1214,4.9844,8.2698,7.1875,12.426,2.1952-4.1571,4.5423-8.3114,7.125-12.426-2.2639-4.1769-4.6511-8.3406-7.1562-12.464-2.5069,4.1256-4.8927,8.2886-7.1562,12.464z" />
  <path
     id="path4622"
     fill-rule="evenodd"
     fill="#0a0a32"
     d="m278.62,182.29c-3.8354,8.2319-6.7914,16.611-8.7188,25.188,16.956-5.9908,24.261-16.803,36.438-25.188h-27.719z" />
  <path
     id="path4620"
     fill-rule="evenodd"
     fill="#0a0a32"
     d="m268.08,218.07c-0.59395,4.9607-0.82737,9.9654-0.65625,15.062,27.359-7.212,31.788-26.326,56.25-34.5-1.3569-4.3576-2.9894-8.6692-4.8438-12.938-21.752,8.3792-27.262,24.866-50.75,32.375z" />
  <path
     id="path4597"
     fill-rule="evenodd"
     fill="#0a0a32"
     d="m328.52,232.1c0.19327-8.1597-0.63938-16.15-2.3438-23.969-8.7641,2.6103-15.058,6.4162-20.562,10.625,6.104,5.2148,12.881,10.12,22.906,13.344z" />
  <path
     id="path3063-1-4-9-6"
     fill-rule="evenodd"
     fill="#0a0a32"
     d="m296.86,177.29c-2.3787-4.654-5.0317-9.2473-7.9062-13.812-2.8735,4.5638-5.5283,9.1625-7.9062,13.812h15.812z" />
  <path
     id="path3063-1-4-9-6-5"
     fill-rule="evenodd"
     fill="#0a0a32"
     d="m314.86,177.29c-2.3787-4.654-5.0317-9.2473-7.9062-13.812-2.8735,4.5638-5.5283,9.1625-7.9062,13.812h15.812z" />
</svg>
